# xmcd CD database file
#
# Track frame offsets:
#	150
#	14653
#	22315
#	37574
#	51777
#	65720
#	78872
#	93541
#	107516
#	121833
#	134663
#	147118
#	160163
#	173338
#	187295
#	201842
#	214374
#	227816
#	242733
#	256521
#	271753
#
# Disc length: 3811 seconds
#
# Revision: 0
# Processed by: cddbd v1.5.1PL0 Copyright (c) Steve Scherf et al.
# Submitted via: CDex 1.51
#
DISCID=240ee115
DTITLE=Eddie Heywood - 1944 - 1946
DYEAR=1944
DGENRE=Jazz
TTITLE0=Just You, Just Me
TTITLE1=Save Your Sorrow
TTITLE2=Begin The Beguine
TTITLE3=Blue Lou
TTITLE4=Please Don't Talk About Me When I'm Gone
TTITLE5=Lover Man
TTITLE6=Save Your Sorrow
TTITLE7=Baby, Won't You Please Come Home
TTITLE8=That Little Dream Got Nowhere
TTITLE9=I've Found A New Baby
TTITLE10=Who's Sorry Now
TTITLE11=Coquette
TTITLE12=On The Sunny Side Of The The Street
TTITLE13=The Man I Love
TTITLE14=On The Alamo
TTITLE15=I Didn't Know About You
TTITLE16=Just You, Just Me
TTITLE17=Sweet And Lovely
TTITLE18=Who's Sorry Now?
TTITLE19=Loch Lomond
TTITLE20=Pom Pom
EXTD=YEAR: 1944
EXTT0=
EXTT1=
EXTT2=
EXTT3=
EXTT4=
EXTT5=
EXTT6=
EXTT7=
EXTT8=
EXTT9=
EXTT10=
EXTT11=
EXTT12=
EXTT13=
EXTT14=
EXTT15=
EXTT16=
EXTT17=
EXTT18=
EXTT19=
EXTT20=
PLAYORDER=
